<svg width="915" height="874" viewBox="0 0 915 874" fill="none" xmlns="http://www.w3.org/2000/svg">
<path d="M427.005 24.8311C433.728 -8.27711 481.042 -8.27698 487.765 24.8312L547.587 319.437C550.787 335.198 565.509 345.894 581.488 344.067L880.16 309.923C913.725 306.086 928.346 351.084 898.936 367.709L637.235 515.641C623.235 523.555 617.611 540.862 624.286 555.494L749.054 828.997C763.076 859.734 724.798 887.544 699.898 864.711L478.337 661.532C466.484 650.663 448.286 650.663 436.433 661.532L214.871 864.711C189.972 887.545 151.694 859.734 165.716 828.997L290.484 555.494C297.159 540.862 291.535 523.555 277.535 515.641L15.834 367.709C-13.5763 351.084 1.04473 306.086 34.61 309.923L333.282 344.067C349.261 345.894 363.983 335.198 367.183 319.437L427.005 24.8311Z" fill="#FDA1D8"/>
</svg>
