<svg width="1024" height="1024" viewBox="0 0 1024 1024" fill="none" xmlns="http://www.w3.org/2000/svg">
<path d="M85.3335 625.921C85.3335 648.552 94.324 670.257 110.327 686.26C126.33 702.264 148.035 711.254 170.667 711.254C193.299 711.254 215.004 702.264 231.007 686.26C247.01 670.257 256 648.552 256 625.921V540.587H170.667C159.461 540.587 148.364 542.795 138.011 547.083C127.658 551.371 118.251 557.657 110.327 565.581C102.403 573.505 96.1175 582.912 91.8291 593.265C87.5407 603.618 85.3335 614.715 85.3335 625.921ZM624.64 483.414C647.272 483.414 668.977 474.424 684.98 458.42C700.983 442.417 709.974 420.712 709.974 398.081V170.667C709.974 159.461 707.766 148.365 703.478 138.012C699.19 127.659 692.904 118.251 684.98 110.328C677.056 102.404 667.649 96.118 657.296 91.8296C646.943 87.5412 635.846 85.334 624.64 85.334C613.434 85.334 602.338 87.5412 591.985 91.8296C581.631 96.118 572.224 102.404 564.3 110.328C556.376 118.251 550.091 127.659 545.802 138.012C541.514 148.365 539.307 159.461 539.307 170.667V398.081C539.306 409.359 541.541 420.526 545.883 430.935C550.225 441.344 556.587 450.789 564.601 458.724C572.616 466.659 582.124 472.927 592.576 477.165C603.028 481.403 614.216 483.527 625.494 483.414H624.64ZM936.96 398.081C936.96 375.449 927.97 353.744 911.967 337.741C895.964 321.738 874.259 312.747 851.627 312.747C828.995 312.747 807.29 321.738 791.287 337.741C775.284 353.744 766.294 375.449 766.294 398.081V483.414H851.627C862.976 483.641 874.256 481.601 884.807 477.415C895.358 473.228 904.967 466.979 913.073 459.032C921.179 451.085 927.617 441.601 932.012 431.135C936.407 420.669 938.669 409.432 938.667 398.081H936.96ZM398.507 540.587C387.301 540.587 376.204 542.795 365.851 547.083C355.498 551.371 346.091 557.657 338.167 565.581C330.243 573.505 323.958 582.912 319.669 593.265C315.381 603.618 313.174 614.715 313.174 625.921V853.334C313.174 875.966 322.164 897.671 338.167 913.674C354.17 929.677 375.875 938.667 398.507 938.667C421.139 938.667 442.844 929.677 458.847 913.674C474.85 897.671 483.84 875.966 483.84 853.334V625.921C483.84 603.289 474.85 581.584 458.847 565.581C442.844 549.578 421.139 540.587 398.507 540.587ZM625.494 768.001H540.16V853.334C540.16 870.211 545.165 886.71 554.541 900.743C563.918 914.776 577.245 925.713 592.838 932.172C608.431 938.63 625.588 940.32 642.141 937.028C658.694 933.735 673.899 925.608 685.833 913.674C697.767 901.74 705.895 886.535 709.187 869.982C712.48 853.429 710.79 836.271 704.331 820.678C697.873 805.086 686.935 791.759 672.902 782.382C658.869 773.005 642.371 768.001 625.494 768.001ZM853.333 540.587H625.494C602.862 540.587 581.157 549.578 565.154 565.581C549.151 581.584 540.16 603.289 540.16 625.921C540.16 648.552 549.151 670.257 565.154 686.26C581.157 702.264 602.862 711.254 625.494 711.254H853.333C875.965 711.254 897.67 702.264 913.673 686.26C929.676 670.257 938.667 648.552 938.667 625.921C938.667 603.289 929.676 581.584 913.673 565.581C897.67 549.578 875.965 540.587 853.333 540.587ZM398.507 312.747H170.667C159.461 312.747 148.364 314.955 138.011 319.243C127.658 323.531 118.251 329.817 110.327 337.741C102.403 345.665 96.1175 355.072 91.8291 365.425C87.5407 375.778 85.3335 386.874 85.3335 398.081C85.3335 409.287 87.5407 420.383 91.8291 430.736C96.1175 441.089 102.403 450.496 110.327 458.42C118.251 466.344 127.658 472.63 138.011 476.918C148.364 481.207 159.461 483.414 170.667 483.414H398.507C421.139 483.414 442.844 474.424 458.847 458.42C474.85 442.417 483.84 420.712 483.84 398.081C483.84 375.449 474.85 353.744 458.847 337.741C442.844 321.738 421.139 312.747 398.507 312.747ZM398.507 85.334C375.875 85.334 354.17 94.3244 338.167 110.328C322.164 126.331 313.174 148.036 313.174 170.667C313.174 193.299 322.164 215.004 338.167 231.007C354.17 247.01 375.875 256.001 398.507 256.001H483.84V170.667C483.84 159.461 481.633 148.365 477.345 138.012C473.056 127.659 466.771 118.251 458.847 110.328C450.923 102.404 441.516 96.118 431.162 91.8296C420.809 87.5412 409.713 85.334 398.507 85.334Z" fill="white"/>
</svg>
